<svg width="124" height="110" viewBox="0 0 124 110" fill="none" xmlns="http://www.w3.org/2000/svg">
<path d="M62.9604 50.095V83.095M46.9604 66.095H79.9604M13.0125 105.095H111.908C118.143 105.095 121.981 98.2793 118.749 92.9478L69.3015 11.3799C66.1873 6.24283 58.7334 6.24283 55.6193 11.3799L6.17136 92.9478C2.93931 98.2793 6.77782 105.095 13.0125 105.095ZM92.627 25.1106V43.095C92.627 44.1996 93.5225 45.095 94.6271 45.095H102.969C104.073 45.095 104.969 44.1996 104.969 43.095V25.1106C104.969 24.0061 105.864 23.1106 106.969 23.1106H113.304C115.061 23.1106 115.964 21.0079 114.755 19.7337L100.411 4.62307C99.6223 3.79231 98.2984 3.79231 97.5098 4.62307L83.166 19.7337C81.9564 21.0079 82.8597 23.1106 84.6165 23.1106H90.627C91.7316 23.1106 92.627 24.0061 92.627 25.1106Z" stroke="#011A3C" stroke-width="8" stroke-linecap="round"/>
</svg>
