<svg width="133" height="174" viewBox="0 0 133 174" fill="none" xmlns="http://www.w3.org/2000/svg">
<path d="M65.8775 22.6843C54.6907 22.6843 43.504 27.0347 35.1139 35.4248C26.7238 43.8148 22.3734 55.0016 22.3734 66.1884C22.3734 77.3751 26.7238 88.5619 35.1139 96.952C43.504 105.342 54.6907 109.692 65.8775 109.692C77.0643 109.692 88.251 105.342 96.6411 96.952C105.031 88.5619 109.382 77.3751 109.382 66.1884C109.382 55.0016 105.031 43.8148 96.6411 35.4248C88.251 27.0347 77.0643 22.6843 65.8775 22.6843ZM92.2907 92.6016C85.1436 99.7487 75.5106 103.478 65.8775 103.478C56.2445 103.478 46.9222 99.7487 39.4643 92.6016C32.3172 85.4545 28.5883 75.8214 28.5883 66.1884C28.5883 56.5553 32.3172 47.233 39.4643 39.7752C46.6114 32.6281 56.2445 28.8991 65.8775 28.8991C75.5106 28.8991 84.8329 32.6281 92.2907 39.7752C99.4378 46.9223 103.167 56.5553 103.167 66.1884C103.167 75.8214 99.4378 85.1437 92.2907 92.6016Z" fill="#011A3C"/>
<path d="M48.4922 64.9463L59.2388 75.6928L84.8569 49.9302C87.185 47.5889 90.9719 47.5836 93.3066 49.9183C95.6366 52.2483 95.6366 56.026 93.3066 58.3561L64.6501 87.0125C61.5259 90.1367 56.4606 90.1367 53.3364 87.0125L39.8812 73.5573C37.5474 71.2236 37.4979 67.4554 39.7694 65.0611C42.1271 62.5759 46.07 62.5241 48.4922 64.9463Z" fill="#011A3C"/>
<path d="M132.066 58.7305C131.755 56.8661 131.134 55.6231 130.512 54.0694C129.269 52.2049 127.716 50.6512 126.783 49.0975C125.54 47.8545 124.608 46.3008 124.297 45.3686C123.987 44.7471 123.987 43.8148 123.987 42.5719C123.987 41.0182 123.987 39.4644 123.987 37.6C123.987 35.4248 123.676 32.9388 122.433 30.4529C121.501 28.8991 120.258 27.9669 119.015 27.0347C117.15 25.7917 115.286 25.1702 113.421 24.238C111.868 23.6165 110.314 22.6843 109.692 22.0628C108.76 21.1306 107.828 18.9554 106.585 16.4694C105.964 15.2264 105.342 13.9835 104.721 12.7405C103.788 11.4975 102.856 10.2545 101.302 9.32231C99.1272 8.07933 96.6412 8.07933 94.1553 8.07933C92.2908 8.07933 90.7371 8.07933 89.1834 8.07933C87.9404 8.07933 87.0082 8.07933 86.3867 7.76859C85.1437 7.45785 83.2793 5.90413 81.4148 4.03967C80.4826 3.10743 79.2396 2.1752 77.9966 1.55372C76.7537 0.621487 75.1999 0 73.3355 0C73.0247 0 72.714 0 72.4032 0C70.8495 0 69.2958 0.310743 68.0528 0.93223C65.8776 1.55372 64.3239 2.48595 62.7702 3.41818C61.2165 4.35041 59.9735 4.66115 59.0413 4.9719H58.4198C57.1768 4.9719 55.6231 4.66115 53.7586 4.03967C51.8942 3.41818 49.719 2.79669 47.233 2.79669C46.3008 2.79669 45.0578 2.79669 43.8148 3.41818C42.2611 4.03967 40.7074 4.9719 39.7752 5.90413C38.2215 7.45785 36.9785 9.32231 36.0462 10.876C34.8033 12.4297 33.871 13.6727 32.9388 13.9835C32.3173 14.2942 31.6958 14.6049 30.7636 14.6049C29.2099 14.9157 27.3454 15.2264 25.1702 15.8479C22.995 16.4694 20.8198 17.0909 18.9554 18.9554C17.7124 20.1983 17.0909 21.752 16.4694 22.995C15.8479 25.1702 15.5372 27.3454 15.2264 29.2099C14.9157 31.0744 14.6049 32.6281 13.9835 33.2496C13.362 34.4925 11.4975 35.7355 9.32231 37.2892C8.39008 38.2215 7.1471 38.8429 5.90413 40.0859C4.9719 41.0181 3.72892 42.5719 3.41818 44.1256C3.10743 45.3686 2.79669 46.3008 2.79669 47.5438C2.79669 50.0297 3.41818 52.2049 4.03967 54.0694C4.66115 55.9338 4.97189 57.7983 4.97189 58.7305V59.352C4.97189 60.595 4.03966 62.4595 2.79669 64.6347C2.1752 65.8776 1.55372 66.8099 0.932231 68.3636C0.310744 69.6066 0 71.1603 0 72.714C0 73.0247 0 73.3355 0 73.6462C0.310744 75.5107 0.932231 76.7537 1.55372 78.3074C2.79669 80.1718 4.35041 81.7256 5.28264 83.2793C6.52561 84.5223 7.45785 86.076 7.76859 87.0082C8.07933 87.6297 8.07933 88.5619 8.07933 89.8049C8.07933 91.3586 8.07933 92.9123 8.07933 94.7768C8.07933 96.952 8.39007 99.4379 9.63305 101.924C10.5653 103.478 11.8083 104.41 13.0512 105.342C14.9157 106.585 16.7801 107.207 18.6446 108.139C20.1983 108.76 21.752 109.692 22.3735 110.314C23.3058 111.246 24.238 113.421 25.481 115.907C26.1025 117.15 26.7239 118.393 27.3454 119.636C28.2777 120.879 29.2099 122.122 30.7636 123.054C31.0744 123.365 31.6958 123.365 32.0066 123.676L18.9554 162.519L39.4644 155.993L51.8942 173.706L66.1884 131.134C66.1884 131.134 66.4991 131.134 66.4991 130.823L80.7933 173.395L93.2231 155.683L113.732 162.208L99.1272 118.704L99.4379 118.393C100.059 118.083 100.681 117.772 101.924 117.461C103.478 117.15 105.342 116.84 107.517 116.218C109.692 115.597 111.868 114.975 113.732 113.111C114.975 111.868 115.597 110.314 116.218 109.071C116.84 106.896 117.15 104.721 117.461 102.856C117.772 100.992 118.083 99.4379 118.704 98.8165C119.326 97.5735 121.19 96.3305 123.365 94.7768C124.297 93.8446 125.54 93.2231 126.783 91.9801C127.716 91.0479 128.959 89.4942 129.269 87.9404C129.58 86.6975 129.891 85.7652 129.891 84.5223C129.891 82.0363 129.269 79.8611 128.648 77.9966C128.026 76.1322 127.716 74.2677 127.716 73.3355V72.714C127.716 71.471 128.648 69.6066 129.891 67.4314C130.512 66.1884 131.134 65.2561 131.755 63.7024C132.377 62.4595 132.688 60.9057 132.688 59.352C132.377 59.352 132.066 59.0413 132.066 58.7305ZM49.4082 159.722L41.6396 148.535L28.5884 152.575L38.2215 124.297C39.7752 124.297 41.6396 124.297 42.8826 124.297C44.1256 124.297 45.0578 124.297 45.6793 124.608C46.9223 124.919 48.7867 126.473 50.6512 128.337C51.5834 129.269 52.8264 130.202 54.0694 130.823C55.3124 131.755 56.8661 132.377 58.7305 132.377L49.4082 159.722ZM90.1156 148.535L82.347 159.722L71.7818 128.026C72.0925 128.026 72.714 127.716 73.0247 127.716H73.6462C74.8892 127.716 76.4429 128.026 78.3074 128.648C80.1718 129.269 82.347 129.891 84.833 129.891C85.7652 129.891 87.0082 129.891 88.2512 129.269C89.8049 128.648 91.3586 127.716 92.2908 126.783C92.9123 126.162 93.5338 125.23 94.1553 124.608L103.478 152.886L90.1156 148.535ZM125.54 61.838C124.919 63.0809 124.297 64.6347 123.365 66.4991C122.433 68.3636 121.501 70.228 121.19 72.4033C121.19 72.714 121.19 73.3355 121.19 73.6462C121.19 76.1322 121.811 78.3074 122.433 80.1718C123.054 82.0363 123.365 83.9008 123.365 84.833C123.365 85.4545 123.365 85.7652 123.054 86.076C122.744 86.6975 122.433 87.0082 121.811 87.6297C120.879 88.5619 119.326 89.8049 117.772 90.7371C116.218 91.9801 114.354 93.2231 113.111 95.3983C112.178 96.6412 111.868 98.195 111.557 99.4379C110.935 101.613 110.935 103.478 110.314 105.031C110.003 106.585 109.382 107.828 108.76 108.45C108.449 108.76 107.828 109.071 106.896 109.382C105.653 110.003 103.788 110.003 101.924 110.625C100.059 110.935 97.8842 111.557 95.709 112.8C92.9123 114.664 91.3586 117.15 89.8049 119.015C89.1834 119.947 88.2512 120.879 87.6297 121.501C87.0082 122.122 86.3867 122.433 86.076 122.744C85.7652 122.744 85.4545 123.054 84.833 123.054C83.59 123.054 82.0363 122.744 80.1718 122.122C78.3074 121.501 76.1322 120.879 73.6462 120.879C73.3355 120.879 72.714 120.879 72.4032 120.879C69.2958 121.19 66.8099 122.744 64.6347 123.987C63.7024 124.608 62.4595 124.919 61.838 125.54C60.9057 125.851 60.2842 126.162 59.6628 126.162H59.352C58.7305 126.162 58.109 125.851 57.4876 125.54C56.2446 124.919 55.0016 123.676 53.4479 122.122C51.8942 120.879 50.0297 119.326 47.8545 118.704C45.99 118.083 44.4363 118.083 42.8826 118.083C41.0181 118.083 39.1537 118.393 37.9107 118.083C36.0463 118.083 34.8033 117.772 34.1818 117.461C33.871 117.15 33.2496 116.84 32.9388 115.907C32.3173 114.664 31.3851 113.111 30.7636 111.246C29.8314 109.382 28.8992 107.207 27.3454 105.653C24.8595 103.478 22.0628 102.235 19.8876 101.302C18.6446 100.681 17.7124 100.37 17.0909 99.7487C16.4694 99.1272 15.8479 98.8165 15.5372 98.5057C15.2264 97.8842 14.9157 96.6413 14.9157 94.7768C14.9157 93.2231 14.9157 91.6694 14.9157 89.8049C14.9157 88.2512 14.9157 86.6975 14.2942 84.833C13.0512 81.7256 11.1868 79.5504 9.32231 77.6859C8.39008 76.7537 7.76859 75.8214 7.45784 75.1999C6.83636 74.2677 6.83636 73.6462 6.83636 73.3355V73.0247C6.83636 72.4033 6.83636 71.7818 7.45784 70.8495C8.07933 69.6066 8.70082 68.0528 9.63305 66.1884C10.5653 64.3239 11.4975 62.4595 11.8083 60.2843C11.8083 59.9735 11.8083 59.352 11.8083 59.0413C11.8083 56.5553 11.1868 54.3801 10.5653 52.5157C9.94379 50.6512 9.63305 48.7867 9.63305 47.8545C9.63305 47.233 9.63305 46.9223 9.94379 46.6115C10.2545 45.99 10.5653 45.6793 11.1868 45.0578C12.119 44.1256 13.6727 42.8826 15.2264 41.9504C16.7802 40.7074 18.6446 39.4644 19.8876 37.2892C20.8198 36.0463 21.1306 34.4925 21.4413 33.2496C22.0628 31.0744 22.0628 29.2099 22.6843 27.6562C22.995 26.1025 23.6165 24.8595 24.238 24.238C24.5487 23.9273 25.1702 23.6165 26.1025 23.3058C27.3454 22.6843 29.2099 22.6843 31.0744 22.0628C32.9388 21.7521 35.114 21.1306 37.2892 19.8876C40.0859 18.0231 41.6396 15.5372 43.1934 13.6727C43.8148 12.7405 44.7471 11.8083 45.3686 11.1868C45.99 10.5653 46.6115 10.2545 46.9223 9.94379C47.233 9.94379 47.5438 9.63305 48.1652 9.63305C49.4082 9.63305 50.9619 9.94379 52.8264 10.5653C54.6909 11.1868 56.8661 11.8083 59.352 11.8083C59.6628 11.8083 60.2842 11.8083 60.595 11.8083C63.7024 11.4975 66.1884 9.94379 68.3636 8.70082C69.2958 8.07933 70.5388 7.76859 71.1603 7.1471C72.0925 6.83636 72.714 6.52561 73.3355 6.52561H73.6462C74.2677 6.52561 74.8892 6.83636 75.5107 7.1471C76.7537 7.76859 77.9966 9.01156 79.5504 10.5653C81.1041 11.8083 82.9685 13.362 85.1437 13.9835C86.076 14.2942 87.6297 14.2942 89.1834 14.2942C91.0479 14.2942 92.9123 13.9835 94.1553 14.2942C96.0197 14.2942 97.2627 14.6049 97.8842 14.9157C98.195 15.2264 98.8165 15.5372 99.1272 16.4694C99.7487 17.7124 100.681 19.2661 101.302 21.1306C102.235 22.995 103.167 25.1702 104.721 26.7239C107.207 28.8992 110.003 30.1421 112.178 31.0744C113.421 31.6958 114.354 32.0066 114.975 32.6281C115.597 33.2496 116.218 33.5603 116.529 33.871C116.84 34.4925 117.15 35.7355 117.15 37.6C117.15 39.1537 117.15 40.7074 117.15 42.5719C117.15 44.1256 117.15 45.6793 117.772 47.5438C119.015 50.6512 120.879 52.8264 122.744 54.6909C123.676 55.6231 124.297 56.5553 124.608 57.1768C125.23 58.109 125.23 58.7305 125.23 59.0413V59.352C126.162 60.2843 125.851 60.9057 125.54 61.838Z" fill="#011A3C"/>
</svg>
