<svg width="152" height="138" viewBox="0 0 152 138" fill="none" xmlns="http://www.w3.org/2000/svg">
<path d="M53.9873 5C53.9873 2.51472 51.9726 0.5 49.4873 0.5C47.0021 0.5 44.9873 2.51472 44.9873 5H53.9873ZM44.9873 24.7614C44.9873 27.2467 47.0021 29.2614 49.4873 29.2614C51.9726 29.2614 53.9873 27.2467 53.9873 24.7614H44.9873ZM110.608 5C110.608 2.51472 108.593 0.5 106.108 0.5C103.622 0.5 101.608 2.51472 101.608 5H110.608ZM101.608 24.7614C101.608 27.2467 103.622 29.2614 106.108 29.2614C108.593 29.2614 110.608 27.2467 110.608 24.7614H101.608ZM25.6709 19.8298H126.329V10.8298H25.6709V19.8298ZM142.5 32.3965V112.34H151.5V32.3965H142.5ZM126.329 128.5H25.6709V137.5H126.329V128.5ZM9.5 112.34V32.3965H0.5V112.34H9.5ZM5 45.0814H147V36.0814H5V45.0814ZM25.6709 128.5C16.7376 128.5 9.5 121.263 9.5 112.34H0.5C0.5 126.238 11.7717 137.5 25.6709 137.5V128.5ZM142.5 112.34C142.5 121.263 135.262 128.5 126.329 128.5V137.5C140.228 137.5 151.5 126.238 151.5 112.34H142.5ZM126.329 19.8298C131.363 19.8298 135.481 21.0852 138.224 23.1683C140.817 25.1373 142.5 28.0642 142.5 32.3965H151.5C151.5 25.3187 148.555 19.7123 143.667 16.0005C138.929 12.4028 132.711 10.8298 126.329 10.8298V19.8298ZM25.6709 10.8298C19.2886 10.8298 13.071 12.4028 8.33301 16.0005C3.44476 19.7123 0.5 25.3187 0.5 32.3965H9.5C9.5 28.0642 11.1826 25.1373 13.7757 23.1683C16.5191 21.0852 20.637 19.8298 25.6709 19.8298V10.8298ZM44.9873 5V24.7614H53.9873V5H44.9873ZM101.608 5V24.7614H110.608V5H101.608Z" fill="#777777"/>
<rect x="107" y="66" width="5" height="5" stroke="#777777" stroke-width="11" stroke-linejoin="round"/>
<rect x="107" y="98" width="5" height="5" stroke="#777777" stroke-width="11" stroke-linejoin="round"/>
<rect x="73" y="66" width="5" height="5" stroke="#777777" stroke-width="11" stroke-linejoin="round"/>
<rect x="73" y="98" width="5" height="5" stroke="#777777" stroke-width="11" stroke-linejoin="round"/>
<rect x="39" y="66" width="5" height="5" stroke="#777777" stroke-width="11" stroke-linejoin="round"/>
<rect x="39" y="98" width="5" height="5" stroke="#777777" stroke-width="11" stroke-linejoin="round"/>
</svg>
