<svg width="136" height="113" viewBox="0 0 136 113" fill="none" xmlns="http://www.w3.org/2000/svg">
<path d="M121.284 14.6445L117.761 18.1922L117.763 18.1938L121.284 14.6445ZM97.8361 5.00001L97.8361 10L97.8361 5.00001ZM74.3879 14.6445L77.9104 18.193L77.9112 18.1922L74.3879 14.6445ZM67.9984 20.987L64.4759 24.5356C66.4255 26.4709 69.5713 26.4709 71.5209 24.5356L67.9984 20.987ZM61.6089 14.6445L65.1314 11.0959L65.1314 11.0959L61.6089 14.6445ZM14.7126 61.1966L18.235 57.6481L18.235 57.6481L14.7126 61.1966ZM21.102 67.5392L17.5795 71.0877C17.6201 71.128 17.6614 71.1676 17.7034 71.2065L21.102 67.5392ZM114.895 67.5392L118.293 71.2065C118.335 71.1676 118.377 71.128 118.417 71.0877L114.895 67.5392ZM121.284 61.1966L117.763 57.6472L117.762 57.6481L121.284 61.1966ZM61.2011 104.701L64.5997 101.033L64.5997 101.033L61.2011 104.701ZM74.7957 104.701L71.397 101.033L71.397 101.033L74.7957 104.701ZM72.9984 36.4821C72.9984 33.7206 70.7598 31.4821 67.9984 31.4821C65.237 31.4821 62.9984 33.7206 62.9984 36.4821H72.9984ZM62.9984 70.4934C62.9984 73.2549 65.237 75.4934 67.9984 75.4934C70.7598 75.4934 72.9984 73.2549 72.9984 70.4934H62.9984ZM124.808 11.0968C121.263 7.57641 117.056 4.78576 112.429 2.88245L108.625 12.1307C112.044 13.5371 115.148 15.5974 117.761 18.1922L124.808 11.0968ZM112.429 2.88245C107.801 0.97917 102.843 1.00136e-05 97.8361 1.00136e-05L97.8361 10C101.539 10 105.206 10.7243 108.625 12.1307L112.429 2.88245ZM97.8361 1.00136e-05C92.8293 1.00136e-05 87.8708 0.979168 83.2434 2.88245L87.0473 12.1307C90.4666 10.7243 94.1328 10 97.8361 10V1.00136e-05ZM83.2434 2.88245C78.616 4.78576 74.4093 7.57642 70.8646 11.0968L77.9112 18.1922C80.524 15.5974 83.6281 13.5371 87.0473 12.1307L83.2434 2.88245ZM70.8654 11.0959L64.4759 17.4385L71.5209 24.5356L77.9104 18.193L70.8654 11.0959ZM71.5209 17.4385L65.1314 11.0959L58.0864 18.193L64.4759 24.5356L71.5209 17.4385ZM65.1314 11.0959C57.9721 3.98918 48.2698 0.00320979 38.1607 0.00320986L38.1607 10.0032C45.6413 10.0032 52.808 12.9534 58.0864 18.193L65.1314 11.0959ZM38.1607 0.00320986C28.0517 0.00320994 18.3494 3.98918 11.1901 11.0959L18.235 18.193C23.5134 12.9534 30.6802 10.0032 38.1607 10.0032L38.1607 0.00320986ZM11.1901 11.0959C4.02951 18.2039 7.55689e-08 27.8523 0 37.9205L10 37.9205C10 30.5283 12.9579 23.4314 18.235 18.193L11.1901 11.0959ZM0 37.9205C-7.55689e-08 47.9888 4.02951 57.6371 11.1901 64.7451L18.235 57.6481C12.9579 52.4097 10 45.3127 10 37.9205L0 37.9205ZM11.1901 64.7451L17.5795 71.0877L24.6245 63.9906L18.235 57.6481L11.1901 64.7451ZM17.7034 71.2065L57.8024 108.368L64.5997 101.033L24.5007 63.8719L17.7034 71.2065ZM78.1943 108.368L118.293 71.2065L111.496 63.8719L71.397 101.033L78.1943 108.368ZM118.417 71.0877L124.807 64.7451L117.762 57.6481L111.372 63.9906L118.417 71.0877ZM124.806 64.7459C128.352 61.2272 131.168 57.0473 133.089 52.4441L123.861 48.592C122.448 51.9764 120.376 55.0537 117.763 57.6472L124.806 64.7459ZM133.089 52.4441C135.011 47.8408 136 42.9055 136 37.9205H126C126 41.5816 125.273 45.2077 123.861 48.592L133.089 52.4441ZM136 37.9205C136 32.9355 135.011 28.0003 133.089 23.397L123.861 27.249C125.273 30.6333 126 34.2594 126 37.9205H136ZM133.089 23.397C131.168 18.7938 128.352 14.6139 124.806 11.0951L117.763 18.1938C120.376 20.7873 122.448 23.8647 123.861 27.249L133.089 23.397ZM57.8024 108.368C63.5546 113.699 72.4422 113.699 78.1943 108.368L71.397 101.033C69.4797 102.81 66.5171 102.81 64.5997 101.033L57.8024 108.368ZM62.9984 36.4821V70.4934H72.9984V36.4821H62.9984Z" fill="#011A3C"/>
<circle cx="68" cy="85" r="4" fill="#011A3C"/>
</svg>
