<svg width="152" height="138" viewBox="0 0 152 138" fill="none" xmlns="http://www.w3.org/2000/svg">
<path d="M53.9873 5C53.9873 2.51472 51.9726 0.5 49.4873 0.5C47.0021 0.5 44.9873 2.51472 44.9873 5H53.9873ZM44.9873 24.7614C44.9873 27.2467 47.0021 29.2614 49.4873 29.2614C51.9726 29.2614 53.9873 27.2467 53.9873 24.7614H44.9873ZM110.608 5C110.608 2.51472 108.593 0.5 106.108 0.5C103.622 0.5 101.608 2.51472 101.608 5H110.608ZM101.608 24.7614C101.608 27.2467 103.622 29.2614 106.108 29.2614C108.593 29.2614 110.608 27.2467 110.608 24.7614H101.608ZM94.9613 69.928C97.4465 69.9279 99.4612 67.9131 99.4611 65.4279C99.461 62.9426 97.4463 60.9279 94.961 60.928L94.9613 69.928ZM65.4986 65.4289L65.4504 69.9286C65.4665 69.9288 65.4826 69.9289 65.4987 69.9289L65.4986 65.4289ZM60.8081 65.3787L60.76 69.8784L60.76 69.8784L60.8081 65.3787ZM52.6329 73.4831L57.1329 73.4716L57.1329 73.4716L52.6329 73.4831ZM48.1601 84.1352C48.1665 86.6205 50.1863 88.63 52.6716 88.6237C55.1569 88.6173 57.1664 86.5975 57.1601 84.1122L48.1601 84.1352ZM98.1059 64.5473L94.9248 67.7301L94.9248 67.7301L98.1059 64.5473ZM90.6884 50.7715C88.9306 49.0147 86.0813 49.0154 84.3244 50.7733C82.5675 52.5311 82.5683 55.3804 84.3262 57.1372L90.6884 50.7715ZM98.1059 65.8176L94.9248 62.6348L94.9248 62.6348L98.1059 65.8176ZM84.3262 73.2277C82.5683 74.9846 82.5675 77.8338 84.3244 79.5916C86.0813 81.3495 88.9306 81.3503 90.6884 79.5934L84.3262 73.2277ZM56.2636 96.9401C53.7785 96.9055 51.736 98.892 51.7014 101.377C51.6668 103.862 53.6532 105.905 56.1383 105.939L56.2636 96.9401ZM85.6606 101.85L85.7716 97.3513C85.7555 97.3509 85.7394 97.3506 85.7233 97.3503L85.6606 101.85ZM90.3499 101.966L90.2389 106.464L90.2389 106.464L90.3499 101.966ZM98.6375 93.9761L94.1378 93.9247L94.1378 93.9247L98.6375 93.9761ZM103.259 83.3874C103.287 80.9023 101.295 78.8647 98.8104 78.8364C96.3253 78.808 94.2877 80.7996 94.2593 83.2847L103.259 83.3874ZM53.0441 102.276L56.2693 99.1383L56.2693 99.1383L53.0441 102.276ZM60.2685 116.154C62.0017 117.936 64.8506 117.975 66.6319 116.241C68.4131 114.508 68.4521 111.659 66.719 109.878L60.2685 116.154ZM53.0618 101.006L56.1982 104.233L56.1982 104.233L53.0618 101.006ZM66.9438 93.7892C68.726 92.057 68.7666 89.2081 67.0344 87.4259C65.3022 85.6437 62.4533 85.6031 60.6711 87.3353L66.9438 93.7892ZM25.6709 19.8298H126.329V10.8298H25.6709V19.8298ZM142.5 32.3965V112.34H151.5V32.3965H142.5ZM126.329 128.5H25.6709V137.5H126.329V128.5ZM9.5 112.34V32.3965H0.5V112.34H9.5ZM5 45.0814H147V36.0814H5V45.0814ZM25.6709 128.5C16.7376 128.5 9.5 121.263 9.5 112.34H0.5C0.5 126.238 11.7717 137.5 25.6709 137.5V128.5ZM142.5 112.34C142.5 121.263 135.262 128.5 126.329 128.5V137.5C140.228 137.5 151.5 126.238 151.5 112.34H142.5ZM126.329 19.8298C131.363 19.8298 135.481 21.0852 138.224 23.1683C140.817 25.1373 142.5 28.0642 142.5 32.3965H151.5C151.5 25.3187 148.555 19.7123 143.667 16.0005C138.929 12.4028 132.711 10.8298 126.329 10.8298V19.8298ZM25.6709 10.8298C19.2886 10.8298 13.071 12.4028 8.33301 16.0005C3.44476 19.7123 0.5 25.3187 0.5 32.3965H9.5C9.5 28.0642 11.1826 25.1373 13.7757 23.1683C16.5191 21.0852 20.637 19.8298 25.6709 19.8298V10.8298ZM44.9873 5V24.7614H53.9873V5H44.9873ZM101.608 5V24.7614H110.608V5H101.608ZM94.961 60.928L65.4984 60.9289L65.4987 69.9289L94.9613 69.928L94.961 60.928ZM65.5467 60.9292L60.8563 60.8789L60.76 69.8784L65.4504 69.9286L65.5467 60.9292ZM48.1329 73.4946L48.1601 84.1352L57.1601 84.1122L57.1329 73.4716L48.1329 73.4946ZM60.8563 60.8789C53.8413 60.8039 48.115 66.4769 48.1329 73.4946L57.1329 73.4716C57.1278 71.4758 58.7572 69.857 60.76 69.8784L60.8563 60.8789ZM101.287 61.3645L90.6884 50.7715L84.3262 57.1372L94.9248 67.7301L101.287 61.3645ZM94.9248 62.6348L84.3262 73.2277L90.6884 79.5934L101.287 69.0005L94.9248 62.6348ZM94.9248 67.7301C93.5173 66.3234 93.5173 64.0415 94.9248 62.6348L101.287 69.0005C103.397 66.8921 103.397 63.4728 101.287 61.3645L94.9248 67.7301ZM56.1383 105.939L85.598 106.349L85.7233 97.3503L56.2636 96.9401L56.1383 105.939ZM85.5497 106.349L90.2389 106.464L90.4608 97.4669L85.7716 97.3513L85.5497 106.349ZM103.137 94.0274L103.259 83.3874L94.2593 83.2847L94.1378 93.9247L103.137 94.0274ZM90.2389 106.464C97.2522 106.637 103.057 101.045 103.137 94.0274L94.1378 93.9247C94.115 95.9203 92.4632 97.5163 90.4608 97.4669L90.2389 106.464ZM49.8189 105.415L60.2685 116.154L66.719 109.878L56.2693 99.1383L49.8189 105.415ZM56.1982 104.233L66.9438 93.7892L60.6711 87.3353L49.9255 97.7793L56.1982 104.233ZM56.2693 99.1383C57.6572 100.565 57.6252 102.846 56.1982 104.233L49.9255 97.7793C47.7868 99.8579 47.739 103.277 49.8189 105.415L56.2693 99.1383Z" fill="#011A3C"/>
</svg>
